<?xml version="1.0" standalone="no"?>
<svg xmlns="http://www.w3.org/2000/svg" viewBox="0 0 111 65" width="111" height="65"><g fill="#eda7a9" color="#eda7a9" transform="translate(33.392 0) scale(0.88) "><svg width="50.0" height="42.0" x="0.0" y="0.0" viewBox="0 0 50 42"><path fill="currentColor" fill-rule="nonzero" d="M21.3 13.56l5.81 12.46-10.95-2.3-5.81-12.46 10.95 2.3zm20.86-9.73l5.81 12.46-10.95-2.3-5.81-12.46 10.95 2.3zm-8.91 36.83L8.44 36.19 16 24.99l12.1 2.54c.05.01.09.01.13.01.09 0 .18-.02.27-.06.01 0 .01-.01.01-.01.03-.01.05-.04.08-.06.03-.02.05-.05.08-.07.03-.03.07-.05.09-.08l8.11-12.01 11.19 2.35-14.81 23.06zm16.45-23.3c.01-.02.02-.03.03-.05.01-.05-.02-.08-.03-.13 0-.07.01-.13-.02-.2-.01-.02.01-.05-.01-.07L43.19 3c-.01-.02-.03-.02-.03-.03-.04-.07-.11-.11-.18-.16-.07-.05-.12-.11-.2-.14-.02-.01-.02-.02-.04-.03L30.22.01c-.04-.01-.08.03-.13.03-.07 0-.13 0-.19.02-.03.01-.06-.01-.08 0-.01.01-.02.03-.03.03-.05.03-.08.07-.12.12-.03.03-.08.03-.11.07l-8.11 12.01-12.1-2.54c-.05-.01-.08.02-.13.02-.07 0-.12 0-.19.02-.03.01-.06-.01-.08.01-.02.01-.02.03-.03.03-.05.03-.08.07-.12.12-.03.03-.08.03-.11.07L.34 22.37c-.02.02 0 .05-.02.08-.04.08-.04.15-.05.23-.01.08-.02.16.01.24.02.03 0 .05.01.08l6.49 13.91c.01.02.03.03.05.05.02.04.04.06.07.09.03.03.05.06.08.08.01.01.01.03.02.04 0 0 .01 0 .01.01.05.03.11.04.17.05.03.01.04.04.06.04l26.2 4.72a.61.61 0 0 0 .48-.12c.03-.02.05-.05.08-.07.03-.03.07-.05.1-.09l15.54-24.18c.02-.02 0-.05.01-.07.02-.04.03-.07.05-.1z"></path></svg></g><path fill="#45a29e" fill-rule="nonzero" d="M5.23 19.82L5.23 19.82Q3.17 19.82 2.03 18.96Q0.89 18.10 0.44 16.63Q0 15.17 0 13.37L0 13.37L0 6.50Q0 4.54 0.44 3.07Q0.89 1.61 2.03 0.80Q3.17 0 5.23 0L5.23 0Q7.06 0 8.12 0.67Q9.19 1.34 9.66 2.59Q10.13 3.84 10.13 5.59L10.13 5.59L10.13 7.13L7.56 7.13L7.56 5.76Q7.56 4.68 7.45 3.85Q7.34 3.02 6.86 2.57Q6.38 2.11 5.26 2.11L5.26 2.11Q4.10 2.11 3.58 2.60Q3.05 3.10 2.89 4.00Q2.74 4.90 2.74 6.10L2.74 6.10L2.74 13.80Q2.74 15.26 2.98 16.12Q3.22 16.97 3.77 17.33Q4.32 17.69 5.26 17.69L5.26 17.69Q6.36 17.69 6.84 17.20Q7.32 16.70 7.44 15.84Q7.56 14.98 7.56 13.82L7.56 13.82L7.56 12.38L10.13 12.38L10.13 13.82Q10.13 15.60 9.70 16.96Q9.26 18.31 8.21 19.07Q7.15 19.82 5.23 19.82ZM16.32 19.80L16.32 19.80Q14.78 19.80 13.90 19.18Q13.01 18.55 12.64 17.40Q12.26 16.25 12.26 14.69L12.26 14.69L12.26 10.66Q12.26 9.10 12.64 7.94Q13.01 6.79 13.90 6.17Q14.78 5.54 16.32 5.54L16.32 5.54Q17.86 5.54 18.73 6.17Q19.61 6.79 19.98 7.94Q20.35 9.10 20.35 10.66L20.35 10.66L20.35 14.69Q20.35 16.25 19.98 17.40Q19.61 18.55 18.73 19.18Q17.86 19.80 16.32 19.80ZM16.32 17.90L16.32 17.90Q17.06 17.90 17.36 17.47Q17.66 17.04 17.72 16.33Q17.78 15.62 17.78 14.86L17.78 14.86L17.78 10.51Q17.78 9.72 17.72 9.02Q17.66 8.33 17.36 7.88Q17.06 7.44 16.32 7.44L16.32 7.44Q15.58 7.44 15.26 7.88Q14.95 8.33 14.89 9.02Q14.83 9.72 14.83 10.51L14.83 10.51L14.83 14.86Q14.83 15.62 14.89 16.33Q14.95 17.04 15.26 17.47Q15.58 17.90 16.32 17.90ZM25.92 19.80L25.92 19.80Q24.17 19.80 23.30 18.52Q22.44 17.23 22.44 14.16L22.44 14.16L22.44 11.47Q22.44 9.89 22.70 8.53Q22.97 7.18 23.70 6.36Q24.43 5.54 25.85 5.54L25.85 5.54Q26.54 5.54 27.12 5.86Q27.70 6.17 28.15 6.62L28.15 6.62L28.15 0.17L30.72 0.17L30.72 19.61L28.15 19.61L28.15 18.72Q27.70 19.20 27.16 19.50Q26.62 19.80 25.92 19.80ZM26.57 17.78L26.57 17.78Q26.93 17.78 27.34 17.65Q27.74 17.52 28.15 17.26L28.15 17.26L28.15 8.16Q27.82 7.92 27.41 7.74Q27 7.56 26.52 7.56L26.52 7.56Q25.63 7.56 25.32 8.41Q25.01 9.26 25.01 10.46L25.01 10.46L25.01 14.38Q25.01 15.34 25.12 16.12Q25.22 16.90 25.56 17.34Q25.90 17.78 26.57 17.78ZM37.15 19.80L37.15 19.80Q35.52 19.80 34.63 19.16Q33.74 18.53 33.40 17.29Q33.05 16.06 33.05 14.26L33.05 14.26L33.05 11.09Q33.05 9.24 33.41 8.02Q33.77 6.79 34.67 6.17Q35.57 5.54 37.15 5.54L37.15 5.54Q38.90 5.54 39.73 6.26Q40.56 6.98 40.82 8.34Q41.09 9.70 41.09 11.59L41.09 11.59L41.09 12.72L35.62 12.72L35.62 15.50Q35.62 16.34 35.77 16.87Q35.93 17.40 36.28 17.65Q36.62 17.90 37.18 17.90L37.18 17.90Q37.75 17.90 38.05 17.63Q38.35 17.35 38.46 16.84Q38.57 16.32 38.57 15.62L38.57 15.62L38.57 14.78L41.06 14.78L41.06 15.31Q41.06 17.40 40.18 18.60Q39.29 19.80 37.15 19.80ZM35.62 10.58L35.62 11.33L38.57 11.33L38.57 10.08Q38.57 9.22 38.47 8.63Q38.38 8.04 38.08 7.74Q37.78 7.44 37.13 7.44L37.13 7.44Q36.50 7.44 36.18 7.73Q35.86 8.02 35.74 8.70Q35.62 9.38 35.62 10.58L35.62 10.58ZM46.06 19.61L43.49 19.61L43.49 5.74L46.06 5.74L46.06 7.70Q46.82 6.43 47.59 6Q48.36 5.57 49.13 5.57L49.13 5.57Q49.22 5.57 49.31 5.57Q49.39 5.57 49.54 5.59L49.54 5.59L49.54 8.42Q49.25 8.30 48.88 8.22Q48.50 8.14 48.12 8.14L48.12 8.14Q47.52 8.14 47.03 8.41Q46.54 8.69 46.06 9.48L46.06 9.48L46.06 19.61ZM53.50 19.61L51.29 19.61L51.65 0.17L54.31 0.17L57.74 15.94L61.20 0.17L63.84 0.17L64.20 19.61L62.02 19.61L61.80 5.50L58.51 19.61L56.98 19.61L53.71 5.50L53.50 19.61ZM69.46 19.80L69.46 19.80Q68.64 19.80 68.02 19.33Q67.39 18.86 67.03 18.13Q66.67 17.40 66.67 16.58L66.67 16.58Q66.67 15.29 67.10 14.40Q67.54 13.51 68.29 12.90Q69.05 12.29 70.04 11.83Q71.04 11.38 72.14 10.94L72.14 10.94L72.14 9.96Q72.14 9.12 72.05 8.57Q71.95 8.02 71.65 7.74Q71.35 7.46 70.75 7.46L70.75 7.46Q70.22 7.46 69.90 7.70Q69.58 7.94 69.43 8.39Q69.29 8.83 69.29 9.43L69.29 9.43L69.29 10.13L66.74 10.03Q66.79 7.73 67.80 6.64Q68.81 5.54 70.92 5.54L70.92 5.54Q72.98 5.54 73.85 6.67Q74.71 7.80 74.71 9.94L74.71 9.94L74.71 16.27Q74.71 16.92 74.75 17.52Q74.78 18.12 74.84 18.64Q74.90 19.15 74.95 19.61L74.95 19.61L72.60 19.61Q72.53 19.22 72.42 18.64Q72.31 18.05 72.26 17.57L72.26 17.57Q72.02 18.38 71.34 19.09Q70.66 19.80 69.46 19.80ZM70.46 17.59L70.46 17.59Q70.85 17.59 71.18 17.38Q71.52 17.16 71.78 16.88Q72.05 16.61 72.14 16.44L72.14 16.44L72.14 12.50Q71.54 12.84 71.02 13.18Q70.49 13.51 70.09 13.88Q69.70 14.26 69.47 14.72Q69.24 15.19 69.24 15.79L69.24 15.79Q69.24 16.63 69.55 17.11Q69.86 17.59 70.46 17.59ZM79.82 19.61L77.26 19.61L77.26 5.74L79.82 5.74L79.82 7.70Q80.59 6.43 81.36 6Q82.13 5.57 82.90 5.57L82.90 5.57Q82.99 5.57 83.08 5.57Q83.16 5.57 83.30 5.59L83.30 5.59L83.30 8.42Q83.02 8.30 82.64 8.22Q82.27 8.14 81.89 8.14L81.89 8.14Q81.29 8.14 80.80 8.41Q80.30 8.69 79.82 9.48L79.82 9.48L79.82 19.61ZM87.50 19.58L84.94 19.58L84.94 0.14L87.50 0.14L87.50 11.74L91.25 5.74L93.94 5.74L90.67 11.16L93.84 19.61L91.27 19.61L88.68 12.50L87.50 14.28L87.50 19.58ZM99.02 19.80L99.02 19.80Q97.39 19.80 96.50 19.16Q95.62 18.53 95.27 17.29Q94.92 16.06 94.92 14.26L94.92 14.26L94.92 11.09Q94.92 9.24 95.28 8.02Q95.64 6.79 96.54 6.17Q97.44 5.54 99.02 5.54L99.02 5.54Q100.78 5.54 101.60 6.26Q102.43 6.98 102.70 8.34Q102.96 9.70 102.96 11.59L102.96 11.59L102.96 12.72L97.49 12.72L97.49 15.50Q97.49 16.34 97.64 16.87Q97.80 17.40 98.15 17.65Q98.50 17.90 99.05 17.90L99.05 17.90Q99.62 17.90 99.92 17.63Q100.22 17.35 100.33 16.84Q100.44 16.32 100.44 15.62L100.44 15.62L100.44 14.78L102.94 14.78L102.94 15.31Q102.94 17.40 102.05 18.60Q101.16 19.80 99.02 19.80ZM97.49 10.58L97.49 11.33L100.44 11.33L100.44 10.08Q100.44 9.22 100.34 8.63Q100.25 8.04 99.95 7.74Q99.65 7.44 99 7.44L99 7.44Q98.38 7.44 98.05 7.73Q97.73 8.02 97.61 8.70Q97.49 9.38 97.49 10.58L97.49 10.58ZM108.98 19.80L108.98 19.80Q107.90 19.80 107.24 19.39Q106.58 18.98 106.28 18.24Q105.98 17.50 105.98 16.49L105.98 16.49L105.98 7.44L104.52 7.44L104.52 5.74L105.98 5.74L105.98 1.68L108.55 1.68L108.55 5.74L110.78 5.74L110.78 7.44L108.55 7.44L108.55 16.32Q108.55 17.14 108.82 17.48Q109.08 17.83 109.82 17.83L109.82 17.83Q110.02 17.83 110.27 17.81Q110.52 17.78 110.76 17.76L110.76 17.76L110.76 19.66Q110.28 19.73 109.87 19.76Q109.46 19.80 108.98 19.80Z" transform="translate(0, 44.96)"></path></svg>